<svg fill="none" height="27" viewBox="0 0 105 27" width="105" xmlns="http://www.w3.org/2000/svg" xmlns:xlink="http://www.w3.org/1999/xlink"><clipPath id="a"><path d="m0 0h105v26.414h-105z"/></clipPath><g clip-path="url(#a)"><path d="m4.87908 23.7389c-1.23777-1.2372-2.21797-2.7072-2.88379-4.3256-.66582-1.6185-1.00408-3.353-.99524-5.1031-.009006-1.75.32917-3.4845.995-5.103.66583-1.61849 1.64612-3.08906 2.88403-4.32617 1.23714-1.23786 2.70745-2.21796 4.32593-2.88379 1.61849-.66583 3.35299-1.004067 5.10299-.99511 1.7502-.008924 3.4849.32929 5.1036.99511 1.6186.66583 3.0891 1.64595 4.3265 2.88379l-4.042 4.04199-.0851-.08593c-.7059-.70982-1.5455-1.27264-2.4703-1.65576-.9249-.38313-1.9166-.57888-2.9176-.57618-1.0011-.0027-1.9928.19305-2.9176.57618-.9249.38312-1.76459.94594-2.47049 1.65576-.70989.70605-1.27263 1.54621-1.65576 2.47121-.38312.925-.57895 1.9167-.57617 2.9179-.00279 1.001.19304 1.9923.57617 2.917s.94589 1.7641 1.65576 2.4698l.08606.0854-4.04199 4.042z" stroke="#1a1818" stroke-miterlimit="10" stroke-width="2"/><path d="m19.6115 19.6122c2.9758-2.9758 2.9758-7.8006 0-10.77635-2.9758-2.9758-7.8005-2.9758-10.77633 0-2.97579 2.97575-2.97579 7.80055 0 10.77635 2.97583 2.9757 7.80053 2.9757 10.77633 0z" stroke="#1a1818" stroke-miterlimit="10" stroke-width="2"/><path d="m39.7154 17.2045c-.553 0-1.0549-.1041-1.5056-.3125-.4508-.2121-.8088-.517-1.0739-.9147-.2652-.4015-.3977-.8864-.3977-1.4546 0-.5.0984-.9053.2954-1.2159.197-.3144.4602-.5606.7898-.7386.3295-.178.6932-.3106 1.0909-.3977.4015-.091.8049-.1629 1.2102-.216.5303-.0681.9603-.1193 1.2898-.1534.3333-.0378.5758-.1003.7273-.1875.1553-.0871.2329-.2386.2329-.4545v-.0455c0-.5606-.1534-.9962-.4602-1.30678-.303-.31061-.7633-.46591-1.3807-.46591-.6401 0-1.142.14015-1.5057.42045-.3636.28034-.6193.57954-.767.89774l-1.2727-.4546c.2272-.53026.5303-.94314.9091-1.23859.3825-.29924.7992-.50758 1.25-.625.4545-.12121.9015-.18182 1.3409-.18182.2803 0 .6022.03409.9659.10227.3674.0644.7216.19887 1.0625.40341.3447.20455.6307.51326.8579.92614.2273.41289.3409.96589.3409 1.65909v5.75h-1.3409v-1.1818h-.0682c-.0909.1894-.2424.392-.4545.6079s-.4943.3997-.8466.5512-.7822.2272-1.2898.2272zm.2046-1.2045c.5303 0 .9773-.1042 1.3409-.3125.3674-.2083.6439-.4773.8295-.8068.1894-.3296.2841-.6762.2841-1.0398v-1.2273c-.0568.0682-.1818.1307-.375.1875-.1894.0531-.4091.1004-.6591.1421-.2462.0379-.4867.072-.7216.1023-.231.0265-.4185.0492-.5625.0681-.3484.0455-.6742.1194-.9772.2216-.2993.0985-.5417.2481-.7273.4489-.1818.197-.2727.4659-.2727.8068 0 .4659.1723.8182.517 1.0568.3485.2349.7898.3523 1.3239.3523zm6.2429 1v-8.72727h1.3409v8.72727zm.6818-10.18182c-.2614 0-.4867-.08901-.6761-.26704-.1856-.17803-.2784-.39205-.2784-.64205s.0928-.46401.2784-.64204c.1894-.17803.4147-.26705.6761-.26705s.4848.08902.6705.26705c.1893.17803.284.39204.284.64204s-.0947.46402-.284.64205c-.1857.17803-.4091.26704-.6705.26704zm3.1151 10.18182v-8.72727h1.2954v1.31818h.0909c.1591-.43182.447-.7822.8637-1.05114.4166-.26894.8863-.40341 1.409-.40341.0985 0 .2216.0019.3694.00569.1477.00378.2594.00947.3352.01704v1.36364c-.0455-.01137-.1496-.02841-.3125-.05114-.1591-.02651-.3277-.03977-.5057-.03977-.4242 0-.803.08901-1.1364.26704-.3295.17425-.5909.41664-.784.72724-.1894.3069-.2841.6572-.2841 1.0512v5.5227zm8.9829.1818c-.7273 0-1.3693-.1837-1.9261-.5511-.5568-.3712-.9925-.894-1.3068-1.5682-.3144-.678-.4716-1.4792-.4716-2.4034 0-.9167.1572-1.7121.4716-2.3864.3143-.67422.7518-1.19505 1.3125-1.56247.5606-.36743 1.2083-.55114 1.9431-.55114.5682 0 1.0171.0947 1.3466.28409.3334.18561.5871.39773.7614.63637.178.23484.3163.42803.4148.57954h.1136v-4.29545h1.3409v11.63636h-1.2954v-1.3409h-.1591c-.0985.1591-.2387.3598-.4205.6023-.1818.2386-.4413.4526-.7784.642-.3371.1856-.786.2784-1.3466.2784zm.1818-1.2045c.5379 0 .9925-.1402 1.3637-.4205.3712-.2841.6534-.6761.8466-1.1761.1931-.5038.2897-1.0852.2897-1.7443 0-.6516-.0947-1.2216-.2841-1.7103-.1894-.4924-.4697-.875-.8409-1.14769-.3712-.27652-.8295-.41477-1.375-.41477-.5682 0-1.0416.14583-1.4204.4375-.375.28786-.6572.67996-.8466 1.17616-.1856.4924-.2784 1.0454-.2784 1.6591 0 .6212.0947 1.1856.2841 1.6931.1931.5038.4772.9053.8522 1.2046.3788.2954.8485.4432 1.4091.4432zm6.4603 1.0227v-8.72727h1.2954v1.31818h.0909c.1591-.43182.447-.7822.8637-1.05114.4166-.26894.8863-.40341 1.409-.40341.0985 0 .2216.0019.3694.00569.1477.00378.2594.00947.3352.01704v1.36364c-.0455-.01137-.1496-.02841-.3125-.05114-.1591-.02651-.3277-.03977-.5057-.03977-.4242 0-.803.08901-1.1364.26704-.3295.17425-.5909.41664-.784.72724-.1894.3069-.2841.6572-.2841 1.0512v5.5227zm9.2329.1818c-.7879 0-1.4792-.1875-2.0739-.5625-.5909-.375-1.053-.8996-1.3863-1.5738-.3296-.6743-.4943-1.4622-.4943-2.3637 0-.9091.1647-1.7026.4943-2.3807.3333-.67799.7954-1.20451 1.3863-1.57951.5947-.375 1.286-.5625 2.0739-.5625s1.4773.1875 2.0682.5625c.5947.375 1.0568.90152 1.3864 1.57951.3333.6781.5 1.4716.5 2.3807 0 .9015-.1667 1.6894-.5 2.3637-.3296.6742-.7917 1.1988-1.3864 1.5738-.5909.375-1.2803.5625-2.0682.5625zm0-1.2045c.5985 0 1.0909-.1534 1.4773-.4603.3863-.3068.6723-.7102.8579-1.2102s.2784-1.0416.2784-1.625c0-.5833-.0928-1.1269-.2784-1.6307s-.4716-.9109-.8579-1.22155c-.3864-.31061-.8788-.46591-1.4773-.46591s-1.0909.1553-1.4773.46591c-.3863.31065-.6723.71775-.8579 1.22155s-.2784 1.0474-.2784 1.6307c0 .5834.0928 1.125.2784 1.625s.4716.9034.8579 1.2102c.3864.3069.8788.4603 1.4773.4603zm6.0014 4.2954v-11.99997h1.2955v1.38636h.1591c.0985-.15151.2348-.3447.4091-.57954.178-.23864.4318-.45076.7613-.63637.3334-.18939.7841-.28409 1.3523-.28409.7349 0 1.3826.18371 1.9432.55114.5606.36742.9981.88825 1.3125 1.56247.3144.6743.4716 1.4697.4716 2.3864 0 .9242-.1572 1.7254-.4716 2.4034-.3144.6742-.75 1.197-1.3068 1.5682-.5569.3674-1.1989.5511-1.9262.5511-.5606 0-1.0094-.0928-1.3466-.2784-.3371-.1894-.5966-.4034-.7784-.642-.1818-.2425-.3219-.4432-.4204-.6023h-.1137v4.6136zm1.3182-7.6363c0 .6591.0966 1.2405.2898 1.7443.1932.5.4754.892.8466 1.1761.3712.2803.8257.4205 1.3636.4205.5606 0 1.0284-.1478 1.4034-.4432.3788-.2993.6629-.7008.8523-1.2046.1932-.5075.2898-1.0719.2898-1.6931 0-.6137-.0947-1.1667-.2841-1.6591-.1856-.4962-.4678-.8883-.8466-1.17616-.375-.29167-.8466-.4375-1.4148-.4375-.5454 0-1.0038.13825-1.375.41477-.3712.27269-.6515.65529-.8409 1.14769-.1894.4887-.2841 1.0587-.2841 1.7103zm14.6136-2.4091-1.2045.3409c-.0758-.2008-.1875-.3959-.3352-.58525-.144-.19318-.3409-.35227-.5909-.47727s-.5701-.1875-.9603-.1875c-.5341 0-.9791.12311-1.3352.36932-.3523.24242-.5284.5511-.5284.9261 0 .3334.1212.5966.3636.7898.2425.1932.6213.3542 1.1364.483l1.2955.3181c.7803.1894 1.3617.4792 1.7443.8694.3826.3863.5738.8844.5738 1.4943 0 .5-.1439.947-.4318 1.3409-.2841.3939-.6818.7045-1.1932.9318-.5113.2273-1.106.3409-1.7841.3409-.8901 0-1.6268-.1932-2.2102-.5795-.5833-.3864-.9526-.9508-1.1079-1.6932l1.2727-.3182c.1212.4697.3504.822.6875 1.0568.3409.2349.786.3523 1.3352.3523.625 0 1.1212-.1326 1.4887-.3977.3712-.269.5568-.5909.5568-.9659 0-.3031-.1061-.5569-.3182-.7614-.2121-.2083-.5379-.3636-.9773-.4659l-1.4545-.3409c-.7993-.1894-1.3864-.483-1.7614-.8807-.3712-.4015-.5568-.9034-.5568-1.5057 0-.4924.1383-.92801.4148-1.3068.2803-.37879.661-.67614 1.142-.89205.4849-.2159 1.0341-.32386 1.6477-.32386.8637 0 1.5417.18939 2.0341.56818.4962.37879.8485.87879 1.0568 1.50003z" fill="#000"/></g></svg>