<svg xmlns="http://www.w3.org/2000/svg" width="26" height="26.414" viewBox="0 0 26 26.414">
  <g id="AirDrop_Logo" data-name="AirDrop Logo" transform="translate(-624 -1631)">
    <path id="Subtraction_1" data-name="Subtraction 1" d="M1067.879-5154.261h0a13.237,13.237,0,0,1-3.879-9.429,13.234,13.234,0,0,1,3.879-9.429,13.235,13.235,0,0,1,9.429-3.879,13.238,13.238,0,0,1,9.43,3.879l-4.042,4.042-.085-.086a7.57,7.57,0,0,0-5.388-2.232,7.57,7.57,0,0,0-5.388,2.232,7.571,7.571,0,0,0-2.232,5.389,7.566,7.566,0,0,0,2.232,5.387l.086.085-4.042,4.042Z" transform="translate(-439 6809)" fill="none" stroke="#1a1818" stroke-miterlimit="10" stroke-width="2"/>
    <circle id="Ellipse_2" data-name="Ellipse 2" cx="7.62" cy="7.62" r="7.62" transform="translate(627.447 1645.224) rotate(-45)" fill="none" stroke="#1a1818" stroke-miterlimit="10" stroke-width="2"/>
  </g>
</svg>
